<mxfile host="app.diagrams.net" modified="2023-06-04T18:41:20.359Z" agent="Mozilla/5.0 (X11; Ubuntu; Linux x86_64; rv:109.0) Gecko/20100101 Firefox/113.0" etag="95FLeRIBVZYbmPcN_oQx" version="21.3.7" type="device">
  <diagram name="Сторінка-1" id="qH8nzaTYc7AD_rEBpv4Q">
    <mxGraphModel dx="2607" dy="2444" grid="1" gridSize="10" guides="1" tooltips="1" connect="1" arrows="1" fold="1" page="1" pageScale="1" pageWidth="827" pageHeight="1169" math="0" shadow="0">
      <root>
        <mxCell id="0" />
        <mxCell id="1" parent="0" />
        <mxCell id="cShfKlVNFVLjyt7FNocE-6" value="&lt;p style=&quot;margin:0px;margin-top:4px;text-align:center;&quot;&gt;&lt;b&gt;Money&lt;/b&gt;&lt;/p&gt;&lt;hr size=&quot;1&quot;&gt;&lt;p style=&quot;margin:0px;margin-left:4px;&quot;&gt;- _bill: int&lt;/p&gt;&lt;p style=&quot;margin:0px;margin-left:4px;&quot;&gt;- _coin; int&lt;br&gt;&lt;/p&gt;&lt;hr size=&quot;1&quot;&gt;+ ChangeMoney: void" style="verticalAlign=top;align=left;overflow=fill;fontSize=12;fontFamily=Helvetica;html=1;whiteSpace=wrap;" vertex="1" parent="1">
          <mxGeometry x="10" y="250" width="160" height="90" as="geometry" />
        </mxCell>
        <mxCell id="cShfKlVNFVLjyt7FNocE-37" style="edgeStyle=orthogonalEdgeStyle;rounded=0;orthogonalLoop=1;jettySize=auto;html=1;exitX=1;exitY=0.5;exitDx=0;exitDy=0;entryX=0;entryY=0.5;entryDx=0;entryDy=0;" edge="1" parent="1" source="cShfKlVNFVLjyt7FNocE-7" target="cShfKlVNFVLjyt7FNocE-34">
          <mxGeometry relative="1" as="geometry" />
        </mxCell>
        <mxCell id="cShfKlVNFVLjyt7FNocE-7" value="&lt;p style=&quot;margin:0px;margin-top:4px;text-align:center;&quot;&gt;&lt;b&gt;Product&lt;/b&gt;&lt;br&gt;&lt;/p&gt;&lt;hr size=&quot;1&quot;&gt;&lt;p style=&quot;margin:0px;margin-left:4px;&quot;&gt;+ Name: string&lt;br&gt;&lt;/p&gt;&lt;p style=&quot;margin:0px;margin-left:4px;&quot;&gt;+ Category: IProductcategory&lt;/p&gt;&lt;p style=&quot;margin:0px;margin-left:4px;&quot;&gt;+ Price: Money&lt;br&gt;&lt;/p&gt;&lt;hr size=&quot;1&quot;&gt;&lt;div&gt;+ LowerPrice: void&lt;/div&gt;&lt;div&gt;+UpperPrice: void&lt;/div&gt;" style="verticalAlign=top;align=left;overflow=fill;fontSize=12;fontFamily=Helvetica;html=1;whiteSpace=wrap;" vertex="1" parent="1">
          <mxGeometry x="340" y="230" width="180" height="130" as="geometry" />
        </mxCell>
        <mxCell id="cShfKlVNFVLjyt7FNocE-8" value="&lt;p style=&quot;margin:0px;margin-top:4px;text-align:center;&quot;&gt;&lt;b&gt;ProductCategory&lt;/b&gt;&lt;br&gt;&lt;/p&gt;&lt;hr size=&quot;1&quot;&gt;&lt;div&gt;+ Id: Guid&lt;/div&gt;&lt;div&gt;+ Unit: string&lt;/div&gt;&lt;div&gt;+ Name: string&lt;br&gt;&lt;/div&gt;" style="verticalAlign=top;align=left;overflow=fill;fontSize=12;fontFamily=Helvetica;html=1;whiteSpace=wrap;" vertex="1" parent="1">
          <mxGeometry x="340" y="10" width="180" height="90" as="geometry" />
        </mxCell>
        <mxCell id="cShfKlVNFVLjyt7FNocE-9" value="&lt;p style=&quot;margin:0px;margin-top:4px;text-align:center;&quot;&gt;&lt;b&gt;WarehouseCategory&lt;/b&gt;&lt;br&gt;&lt;/p&gt;&lt;hr size=&quot;1&quot;&gt;&lt;div&gt;+ Id: Guid&lt;/div&gt;&lt;div&gt;+ CompareUnit: string&lt;/div&gt;&lt;div&gt;+ Name: string&lt;br&gt;&lt;/div&gt;" style="verticalAlign=top;align=left;overflow=fill;fontSize=12;fontFamily=Helvetica;html=1;whiteSpace=wrap;" vertex="1" parent="1">
          <mxGeometry x="940" y="15" width="180" height="90" as="geometry" />
        </mxCell>
        <mxCell id="cShfKlVNFVLjyt7FNocE-12" value="" style="endArrow=open;endFill=1;endSize=12;html=1;rounded=0;exitX=1;exitY=0.5;exitDx=0;exitDy=0;entryX=0;entryY=0.5;entryDx=0;entryDy=0;" edge="1" parent="1" source="cShfKlVNFVLjyt7FNocE-6" target="cShfKlVNFVLjyt7FNocE-7">
          <mxGeometry width="160" relative="1" as="geometry">
            <mxPoint x="610" y="360" as="sourcePoint" />
            <mxPoint x="770" y="360" as="targetPoint" />
          </mxGeometry>
        </mxCell>
        <mxCell id="cShfKlVNFVLjyt7FNocE-13" value="&lt;p style=&quot;margin:0px;margin-top:4px;text-align:center;&quot;&gt;&lt;i&gt;&amp;lt;&amp;lt;Interface&amp;gt;&amp;gt;&lt;/i&gt;&lt;b&gt;&lt;br&gt;&lt;/b&gt;&lt;/p&gt;&lt;p style=&quot;margin:0px;margin-top:4px;text-align:center;&quot;&gt;&lt;b&gt;IProductCategory&lt;/b&gt;&lt;/p&gt;&lt;hr size=&quot;1&quot;&gt;&lt;p style=&quot;margin:0px;margin-left:4px;&quot;&gt;+ Unit: string&lt;br&gt;&lt;/p&gt;" style="verticalAlign=top;align=left;overflow=fill;fontSize=12;fontFamily=Helvetica;html=1;whiteSpace=wrap;" vertex="1" parent="1">
          <mxGeometry x="80" y="15" width="190" height="80" as="geometry" />
        </mxCell>
        <mxCell id="cShfKlVNFVLjyt7FNocE-14" value="&lt;p style=&quot;margin:0px;margin-top:4px;text-align:center;&quot;&gt;&lt;i&gt;&amp;lt;&amp;lt;Interface&amp;gt;&amp;gt;&lt;/i&gt;&lt;b&gt;&lt;br&gt;&lt;/b&gt;&lt;/p&gt;&lt;p style=&quot;margin:0px;margin-top:4px;text-align:center;&quot;&gt;I&lt;b&gt;WarehouseCategory&lt;/b&gt;&lt;/p&gt;&lt;hr size=&quot;1&quot;&gt;&lt;p style=&quot;margin:0px;margin-left:4px;&quot;&gt;+ CompareUnit: string&lt;br&gt;&lt;/p&gt;" style="verticalAlign=top;align=left;overflow=fill;fontSize=12;fontFamily=Helvetica;html=1;whiteSpace=wrap;" vertex="1" parent="1">
          <mxGeometry x="1220" y="20" width="190" height="80" as="geometry" />
        </mxCell>
        <mxCell id="cShfKlVNFVLjyt7FNocE-15" value="&lt;p style=&quot;margin:0px;margin-top:4px;text-align:center;&quot;&gt;&lt;i&gt;&amp;lt;&amp;lt;Interface&amp;gt;&amp;gt;&lt;/i&gt;&lt;b&gt;&lt;br&gt;&lt;/b&gt;&lt;/p&gt;&lt;p style=&quot;margin:0px;margin-top:4px;text-align:center;&quot;&gt;&lt;b&gt;ICategory&lt;/b&gt;&lt;/p&gt;&lt;hr size=&quot;1&quot;&gt;&lt;p style=&quot;margin:0px;margin-left:4px;&quot;&gt;+ Id: Guid&lt;br&gt;&lt;/p&gt;&lt;p style=&quot;margin:0px;margin-left:4px;&quot;&gt;+ Name: string&lt;br&gt;&lt;/p&gt;" style="verticalAlign=top;align=left;overflow=fill;fontSize=12;fontFamily=Helvetica;html=1;whiteSpace=wrap;" vertex="1" parent="1">
          <mxGeometry x="690" y="-160" width="190" height="90" as="geometry" />
        </mxCell>
        <mxCell id="cShfKlVNFVLjyt7FNocE-16" value="" style="endArrow=block;dashed=1;endFill=0;endSize=12;html=1;rounded=0;exitX=1;exitY=0.5;exitDx=0;exitDy=0;entryX=0;entryY=0.5;entryDx=0;entryDy=0;" edge="1" parent="1" source="cShfKlVNFVLjyt7FNocE-9" target="cShfKlVNFVLjyt7FNocE-14">
          <mxGeometry width="160" relative="1" as="geometry">
            <mxPoint x="890" y="215" as="sourcePoint" />
            <mxPoint x="1050" y="215" as="targetPoint" />
          </mxGeometry>
        </mxCell>
        <mxCell id="cShfKlVNFVLjyt7FNocE-21" value="" style="endArrow=block;dashed=1;endFill=0;endSize=12;html=1;rounded=0;exitX=0;exitY=0.5;exitDx=0;exitDy=0;entryX=0.5;entryY=1;entryDx=0;entryDy=0;" edge="1" parent="1" source="cShfKlVNFVLjyt7FNocE-9" target="cShfKlVNFVLjyt7FNocE-15">
          <mxGeometry width="160" relative="1" as="geometry">
            <mxPoint x="850" y="75" as="sourcePoint" />
            <mxPoint x="950" y="70" as="targetPoint" />
            <Array as="points">
              <mxPoint x="785" y="60" />
            </Array>
          </mxGeometry>
        </mxCell>
        <mxCell id="cShfKlVNFVLjyt7FNocE-22" value="" style="endArrow=block;dashed=1;endFill=0;endSize=12;html=1;rounded=0;exitX=0;exitY=0.5;exitDx=0;exitDy=0;entryX=1;entryY=0.5;entryDx=0;entryDy=0;" edge="1" parent="1" source="cShfKlVNFVLjyt7FNocE-8" target="cShfKlVNFVLjyt7FNocE-13">
          <mxGeometry width="160" relative="1" as="geometry">
            <mxPoint x="610" y="210" as="sourcePoint" />
            <mxPoint x="770" y="210" as="targetPoint" />
          </mxGeometry>
        </mxCell>
        <mxCell id="cShfKlVNFVLjyt7FNocE-23" value="" style="endArrow=block;dashed=1;endFill=0;endSize=12;html=1;rounded=0;exitX=0.5;exitY=0;exitDx=0;exitDy=0;entryX=0;entryY=0.5;entryDx=0;entryDy=0;" edge="1" parent="1" source="cShfKlVNFVLjyt7FNocE-8" target="cShfKlVNFVLjyt7FNocE-15">
          <mxGeometry width="160" relative="1" as="geometry">
            <mxPoint x="350" y="65" as="sourcePoint" />
            <mxPoint x="605" y="-50" as="targetPoint" />
            <Array as="points">
              <mxPoint x="430" y="-115" />
            </Array>
          </mxGeometry>
        </mxCell>
        <mxCell id="cShfKlVNFVLjyt7FNocE-25" value="" style="endArrow=open;endFill=1;endSize=12;html=1;rounded=0;exitX=0.5;exitY=1;exitDx=0;exitDy=0;entryX=0.5;entryY=0;entryDx=0;entryDy=0;" edge="1" parent="1" source="cShfKlVNFVLjyt7FNocE-8" target="cShfKlVNFVLjyt7FNocE-7">
          <mxGeometry width="160" relative="1" as="geometry">
            <mxPoint x="240" y="305" as="sourcePoint" />
            <mxPoint x="334" y="305" as="targetPoint" />
          </mxGeometry>
        </mxCell>
        <mxCell id="cShfKlVNFVLjyt7FNocE-38" style="edgeStyle=orthogonalEdgeStyle;rounded=0;orthogonalLoop=1;jettySize=auto;html=1;exitX=0;exitY=0.5;exitDx=0;exitDy=0;entryX=1;entryY=0.5;entryDx=0;entryDy=0;" edge="1" parent="1" source="cShfKlVNFVLjyt7FNocE-26" target="cShfKlVNFVLjyt7FNocE-34">
          <mxGeometry relative="1" as="geometry" />
        </mxCell>
        <mxCell id="cShfKlVNFVLjyt7FNocE-26" value="&lt;p style=&quot;margin:0px;margin-top:4px;text-align:center;&quot;&gt;&lt;b&gt;Warehouse&lt;/b&gt;&lt;br&gt;&lt;/p&gt;&lt;hr size=&quot;1&quot;&gt;&lt;div&gt;+ Id: Guid&lt;/div&gt;&lt;div&gt;+ Category: IWarehouseCategory&lt;/div&gt;&lt;div&gt;+ ProdCount: int&lt;/div&gt;&lt;div&gt;+ Date: DateTime&lt;/div&gt;&lt;div&gt;+ Products: List&amp;lt;Product&amp;gt;&lt;br&gt;&lt;/div&gt;&lt;hr size=&quot;1&quot;&gt;+ GetProductList: string" style="verticalAlign=top;align=left;overflow=fill;fontSize=12;fontFamily=Helvetica;html=1;whiteSpace=wrap;" vertex="1" parent="1">
          <mxGeometry x="940" y="220" width="180" height="150" as="geometry" />
        </mxCell>
        <mxCell id="cShfKlVNFVLjyt7FNocE-27" value="&lt;p style=&quot;margin:0px;margin-top:4px;text-align:center;&quot;&gt;&lt;i&gt;&amp;lt;&amp;lt;Interface&amp;gt;&amp;gt;&lt;/i&gt;&lt;b&gt;&lt;br&gt;&lt;/b&gt;&lt;/p&gt;&lt;p style=&quot;margin:0px;margin-top:4px;text-align:center;&quot;&gt;IWarehouse&lt;/p&gt;&lt;hr size=&quot;1&quot;&gt;&lt;div&gt;+ Id: Guid&lt;/div&gt;&lt;div&gt;+ Category: IWarehouseCategory&lt;/div&gt;&lt;div&gt;+ ProdCount: int&lt;/div&gt;&lt;div&gt;+ Date: DateTime&lt;/div&gt;&lt;div&gt;+ Products: List&amp;lt;Product&amp;gt;&lt;br&gt;&lt;/div&gt;&lt;hr size=&quot;1&quot;&gt;+ GetProductList: string&lt;p style=&quot;margin:0px;margin-left:4px;&quot;&gt;&lt;/p&gt;" style="verticalAlign=top;align=left;overflow=fill;fontSize=12;fontFamily=Helvetica;html=1;whiteSpace=wrap;" vertex="1" parent="1">
          <mxGeometry x="1260" y="215" width="190" height="160" as="geometry" />
        </mxCell>
        <mxCell id="cShfKlVNFVLjyt7FNocE-28" value="" style="endArrow=block;dashed=1;endFill=0;endSize=12;html=1;rounded=0;exitX=1;exitY=0.5;exitDx=0;exitDy=0;entryX=0;entryY=0.5;entryDx=0;entryDy=0;" edge="1" parent="1" source="cShfKlVNFVLjyt7FNocE-26" target="cShfKlVNFVLjyt7FNocE-27">
          <mxGeometry width="160" relative="1" as="geometry">
            <mxPoint x="1130" y="70" as="sourcePoint" />
            <mxPoint x="1230" y="70" as="targetPoint" />
          </mxGeometry>
        </mxCell>
        <mxCell id="cShfKlVNFVLjyt7FNocE-29" value="" style="endArrow=open;endFill=1;endSize=12;html=1;rounded=0;exitX=0.5;exitY=1;exitDx=0;exitDy=0;entryX=0.5;entryY=0;entryDx=0;entryDy=0;" edge="1" parent="1" source="cShfKlVNFVLjyt7FNocE-9" target="cShfKlVNFVLjyt7FNocE-26">
          <mxGeometry width="160" relative="1" as="geometry">
            <mxPoint x="720" y="115" as="sourcePoint" />
            <mxPoint x="720" y="245" as="targetPoint" />
          </mxGeometry>
        </mxCell>
        <mxCell id="cShfKlVNFVLjyt7FNocE-30" value="&lt;p style=&quot;margin:0px;margin-top:4px;text-align:center;&quot;&gt;&lt;b&gt;WarehouseManager&lt;/b&gt;&lt;/p&gt;&lt;p style=&quot;margin:0px;margin-top:4px;text-align:center;&quot;&gt;&lt;b&gt;&lt;br&gt;&lt;/b&gt;&lt;/p&gt;+ Warehouse: IWarehouse&lt;br&gt;&lt;hr size=&quot;1&quot;&gt;&lt;hr size=&quot;1&quot;&gt;&lt;div&gt;+ AddProduct: Product&lt;/div&gt;&lt;div&gt;+RemoveProduct: Product&lt;br&gt;&lt;/div&gt;" style="verticalAlign=top;align=left;overflow=fill;fontSize=12;fontFamily=Helvetica;html=1;whiteSpace=wrap;" vertex="1" parent="1">
          <mxGeometry x="940" y="445" width="180" height="150" as="geometry" />
        </mxCell>
        <mxCell id="cShfKlVNFVLjyt7FNocE-31" value="" style="endArrow=diamondThin;endFill=1;endSize=24;html=1;rounded=0;exitX=0.5;exitY=0;exitDx=0;exitDy=0;entryX=0.5;entryY=1;entryDx=0;entryDy=0;" edge="1" parent="1" source="cShfKlVNFVLjyt7FNocE-30" target="cShfKlVNFVLjyt7FNocE-26">
          <mxGeometry width="160" relative="1" as="geometry">
            <mxPoint x="890" y="335" as="sourcePoint" />
            <mxPoint x="1050" y="335" as="targetPoint" />
          </mxGeometry>
        </mxCell>
        <mxCell id="cShfKlVNFVLjyt7FNocE-32" value="&lt;p style=&quot;margin:0px;margin-top:4px;text-align:center;&quot;&gt;&lt;i&gt;&amp;lt;&amp;lt;Interface&amp;gt;&amp;gt;&lt;/i&gt;&lt;b&gt;&lt;br&gt;&lt;/b&gt;&lt;/p&gt;&lt;p style=&quot;margin:0px;margin-top:4px;text-align:center;&quot;&gt;IWarehouseManager&lt;/p&gt;&lt;hr size=&quot;1&quot;&gt;+ Warehouse: IWarehouse&lt;br&gt;&lt;hr size=&quot;1&quot;&gt;&lt;hr size=&quot;1&quot;&gt;&lt;div&gt;+ AddProduct: Product&lt;/div&gt;+RemoveProduct: Product&lt;p style=&quot;margin:0px;margin-left:4px;&quot;&gt;&lt;/p&gt;" style="verticalAlign=top;align=left;overflow=fill;fontSize=12;fontFamily=Helvetica;html=1;whiteSpace=wrap;" vertex="1" parent="1">
          <mxGeometry x="1250" y="440" width="190" height="160" as="geometry" />
        </mxCell>
        <mxCell id="cShfKlVNFVLjyt7FNocE-33" value="" style="endArrow=block;dashed=1;endFill=0;endSize=12;html=1;rounded=0;exitX=1;exitY=0.5;exitDx=0;exitDy=0;entryX=0;entryY=0.5;entryDx=0;entryDy=0;" edge="1" parent="1" source="cShfKlVNFVLjyt7FNocE-30" target="cShfKlVNFVLjyt7FNocE-32">
          <mxGeometry width="160" relative="1" as="geometry">
            <mxPoint x="1130" y="290" as="sourcePoint" />
            <mxPoint x="1270" y="290" as="targetPoint" />
          </mxGeometry>
        </mxCell>
        <mxCell id="cShfKlVNFVLjyt7FNocE-34" value="&lt;p style=&quot;margin:0px;margin-top:4px;text-align:center;&quot;&gt;&lt;b&gt;Reporting&lt;/b&gt;&lt;br&gt;&lt;/p&gt;&lt;hr size=&quot;1&quot;&gt;&lt;div&gt;+ IncomeReport:string&lt;/div&gt;&lt;div&gt;+ OutcomeReport:string&lt;/div&gt;&lt;div&gt;+ InventoryReport:string&lt;/div&gt;" style="verticalAlign=top;align=left;overflow=fill;fontSize=12;fontFamily=Helvetica;html=1;whiteSpace=wrap;" vertex="1" parent="1">
          <mxGeometry x="647" y="250" width="180" height="90" as="geometry" />
        </mxCell>
        <mxCell id="cShfKlVNFVLjyt7FNocE-35" value="&lt;p style=&quot;margin:0px;margin-top:4px;text-align:center;&quot;&gt;&lt;i&gt;&amp;lt;&amp;lt;Interface&amp;gt;&amp;gt;&lt;/i&gt;&lt;b&gt;&lt;br&gt;&lt;/b&gt;&lt;/p&gt;&lt;p style=&quot;margin:0px;margin-top:4px;text-align:center;&quot;&gt;IReporting&lt;/p&gt;&lt;hr size=&quot;1&quot;&gt;&lt;br&gt;&lt;hr size=&quot;1&quot;&gt;&lt;div&gt;+ IncomeReport:string&lt;/div&gt;&lt;div&gt;+ OutcomeReport:string&lt;/div&gt;&lt;div&gt;+ InventoryReport:string&lt;/div&gt;&lt;p style=&quot;margin:0px;margin-left:4px;&quot;&gt;&lt;/p&gt;" style="verticalAlign=top;align=left;overflow=fill;fontSize=12;fontFamily=Helvetica;html=1;whiteSpace=wrap;" vertex="1" parent="1">
          <mxGeometry x="642" y="430" width="190" height="145" as="geometry" />
        </mxCell>
        <mxCell id="cShfKlVNFVLjyt7FNocE-36" value="" style="endArrow=block;dashed=1;endFill=0;endSize=12;html=1;rounded=0;exitX=0.5;exitY=1;exitDx=0;exitDy=0;entryX=0.5;entryY=0;entryDx=0;entryDy=0;" edge="1" parent="1" source="cShfKlVNFVLjyt7FNocE-34" target="cShfKlVNFVLjyt7FNocE-35">
          <mxGeometry width="160" relative="1" as="geometry">
            <mxPoint x="350" y="65" as="sourcePoint" />
            <mxPoint x="280" y="65" as="targetPoint" />
          </mxGeometry>
        </mxCell>
      </root>
    </mxGraphModel>
  </diagram>
</mxfile>
